<mxfile host="Electron" agent="Mozilla/5.0 (Macintosh; Intel Mac OS X 10_15_7) AppleWebKit/537.36 (KHTML, like Gecko) draw.io/27.0.9 Chrome/134.0.6998.205 Electron/35.4.0 Safari/537.36" version="27.0.9">
  <diagram name="Page-1" id="LHEI1fueCBLV6Wz6gqzf">
    <mxGraphModel dx="1306" dy="929" grid="0" gridSize="10" guides="1" tooltips="1" connect="1" arrows="0" fold="1" page="1" pageScale="1" pageWidth="4681" pageHeight="3300" background="#FFFFFF" math="0" shadow="0" adaptiveColors="auto">
      <root>
        <mxCell id="0" />
        <mxCell id="1" parent="0" />
        <mxCell id="n8Rbeeoi7pqlCmdlCDkc-69" value="&lt;font style=&quot;color: rgb(255, 255, 255);&quot;&gt;Client/User&lt;/font&gt;&lt;div&gt;&lt;font style=&quot;color: rgb(255, 255, 255);&quot;&gt;&lt;br&gt;&lt;/font&gt;&lt;/div&gt;" style="text;html=1;align=center;verticalAlign=middle;resizable=0;points=[];autosize=1;strokeColor=none;fillColor=none;" parent="1" vertex="1">
          <mxGeometry x="1055" y="517" width="77" height="41" as="geometry" />
        </mxCell>
        <mxCell id="n8Rbeeoi7pqlCmdlCDkc-71" value="z" style="whiteSpace=wrap;html=1;movable=1;resizable=1;rotatable=1;deletable=1;editable=1;locked=0;connectable=1;shadow=1;strokeColor=default;rounded=0;perimeterSpacing=20;" parent="1" vertex="1">
          <mxGeometry x="500" y="342" width="3777.25" height="1142" as="geometry" />
        </mxCell>
        <mxCell id="n8Rbeeoi7pqlCmdlCDkc-72" value="" style="points=[[0.35,0,0],[0.98,0.51,0],[1,0.71,0],[0.67,1,0],[0,0.795,0],[0,0.65,0]];verticalLabelPosition=bottom;sketch=0;html=1;verticalAlign=top;aspect=fixed;align=center;pointerEvents=1;shape=mxgraph.cisco19.user;fillColor=#67AB9F;strokeColor=#b85450;movable=1;resizable=1;rotatable=1;deletable=1;editable=1;locked=0;connectable=1;" parent="1" vertex="1">
          <mxGeometry x="663" y="418" width="58" height="58" as="geometry" />
        </mxCell>
        <mxCell id="n8Rbeeoi7pqlCmdlCDkc-73" value="&lt;font style=&quot;color: rgb(255, 255, 255);&quot;&gt;Client/User&lt;/font&gt;&lt;div&gt;&lt;font style=&quot;color: rgb(255, 255, 255);&quot;&gt;&lt;br&gt;&lt;/font&gt;&lt;/div&gt;" style="text;html=1;align=center;verticalAlign=middle;resizable=0;points=[];autosize=1;strokeColor=none;fillColor=none;" parent="1" vertex="1">
          <mxGeometry x="882" y="861" width="77" height="41" as="geometry" />
        </mxCell>
        <mxCell id="n8Rbeeoi7pqlCmdlCDkc-94" style="edgeStyle=orthogonalEdgeStyle;rounded=1;orthogonalLoop=1;jettySize=auto;html=1;exitX=0.5;exitY=1;exitDx=0;exitDy=0;curved=0;" parent="1" target="n8Rbeeoi7pqlCmdlCDkc-93" edge="1">
          <mxGeometry relative="1" as="geometry">
            <mxPoint x="721" y="460" as="sourcePoint" />
            <mxPoint x="1072" y="530" as="targetPoint" />
          </mxGeometry>
        </mxCell>
        <mxCell id="n8Rbeeoi7pqlCmdlCDkc-80" value="Client/User" style="text;strokeColor=none;align=center;fillColor=none;html=1;verticalAlign=middle;whiteSpace=wrap;rounded=0;" parent="1" vertex="1">
          <mxGeometry x="666.5" y="476" width="54.5" height="22" as="geometry" />
        </mxCell>
        <mxCell id="n8Rbeeoi7pqlCmdlCDkc-160" style="edgeStyle=orthogonalEdgeStyle;rounded=0;orthogonalLoop=1;jettySize=auto;html=1;" parent="1" edge="1">
          <mxGeometry relative="1" as="geometry">
            <mxPoint x="1045" y="696" as="targetPoint" />
            <mxPoint x="1045" y="610" as="sourcePoint" />
          </mxGeometry>
        </mxCell>
        <mxCell id="n8Rbeeoi7pqlCmdlCDkc-93" value="DNS Query" style="text;strokeColor=none;align=center;fillColor=none;html=1;verticalAlign=middle;whiteSpace=wrap;rounded=0;" parent="1" vertex="1">
          <mxGeometry x="932.25" y="568" width="225" height="46" as="geometry" />
        </mxCell>
        <mxCell id="n8Rbeeoi7pqlCmdlCDkc-118" value="Shared Services" style="swimlane;whiteSpace=wrap;html=1;fillColor=#f5f5f5;strokeColor=#666666;fontColor=#333333;" parent="1" vertex="1">
          <mxGeometry x="528.25" y="1071" width="404" height="318" as="geometry">
            <mxRectangle x="528.25" y="1071" width="123" height="26" as="alternateBounds" />
          </mxGeometry>
        </mxCell>
        <mxCell id="n8Rbeeoi7pqlCmdlCDkc-123" value="&lt;font style=&quot;font-size: 8px;&quot;&gt;GitHub Actions (CICD Pipeline)&lt;/font&gt;" style="text;strokeColor=none;align=center;fillColor=none;html=1;verticalAlign=middle;whiteSpace=wrap;rounded=0;" parent="n8Rbeeoi7pqlCmdlCDkc-118" vertex="1">
          <mxGeometry x="14.75" y="290" width="85.25" height="14" as="geometry" />
        </mxCell>
        <mxCell id="n8Rbeeoi7pqlCmdlCDkc-120" value="" style="sketch=0;points=[[0,0,0],[0.25,0,0],[0.5,0,0],[0.75,0,0],[1,0,0],[0,1,0],[0.25,1,0],[0.5,1,0],[0.75,1,0],[1,1,0],[0,0.25,0],[0,0.5,0],[0,0.75,0],[1,0.25,0],[1,0.5,0],[1,0.75,0]];outlineConnect=0;fontColor=#232F3E;fillColor=#7AA116;strokeColor=#ffffff;dashed=0;verticalLabelPosition=bottom;verticalAlign=top;align=center;html=1;fontSize=12;fontStyle=0;aspect=fixed;shape=mxgraph.aws4.resourceIcon;resIcon=mxgraph.aws4.s3;" parent="n8Rbeeoi7pqlCmdlCDkc-118" vertex="1">
          <mxGeometry x="315.75" y="105" width="55" height="55" as="geometry" />
        </mxCell>
        <mxCell id="n8Rbeeoi7pqlCmdlCDkc-121" value="Amazon S3 Bucket (Encypted DB Backups)" style="text;strokeColor=none;align=center;fillColor=none;html=1;verticalAlign=middle;whiteSpace=wrap;rounded=0;" parent="n8Rbeeoi7pqlCmdlCDkc-118" vertex="1">
          <mxGeometry x="285.75" y="175" width="115" height="23" as="geometry" />
        </mxCell>
        <mxCell id="n8Rbeeoi7pqlCmdlCDkc-156" value="" style="endArrow=classic;html=1;rounded=1;edgeStyle=orthogonalEdgeStyle;curved=0;" parent="n8Rbeeoi7pqlCmdlCDkc-118" edge="1">
          <mxGeometry relative="1" as="geometry">
            <mxPoint x="58.85" y="212" as="sourcePoint" />
            <mxPoint x="345.1500000000002" y="105" as="targetPoint" />
            <Array as="points">
              <mxPoint x="59" y="205" />
              <mxPoint x="119" y="205" />
              <mxPoint x="119" y="81" />
              <mxPoint x="345" y="81" />
            </Array>
          </mxGeometry>
        </mxCell>
        <mxCell id="n8Rbeeoi7pqlCmdlCDkc-157" value="&lt;font style=&quot;font-size: 10px; color: rgb(77, 153, 0);&quot;&gt;&lt;b&gt;Store Backups&lt;/b&gt;&lt;/font&gt;" style="edgeLabel;resizable=0;html=1;;align=center;verticalAlign=middle;" parent="n8Rbeeoi7pqlCmdlCDkc-156" connectable="0" vertex="1">
          <mxGeometry relative="1" as="geometry">
            <mxPoint x="121" y="-12" as="offset" />
          </mxGeometry>
        </mxCell>
        <mxCell id="n8Rbeeoi7pqlCmdlCDkc-122" value="" style="dashed=0;outlineConnect=0;html=1;align=center;labelPosition=center;verticalLabelPosition=bottom;verticalAlign=top;shape=mxgraph.weblogos.github" parent="1" vertex="1">
          <mxGeometry x="548" y="1290" width="63" height="61" as="geometry" />
        </mxCell>
        <mxCell id="n8Rbeeoi7pqlCmdlCDkc-236" style="edgeStyle=orthogonalEdgeStyle;rounded=0;orthogonalLoop=1;jettySize=auto;html=1;exitX=1;exitY=0.5;exitDx=0;exitDy=0;entryX=0;entryY=0.5;entryDx=0;entryDy=0;" parent="1" source="n8Rbeeoi7pqlCmdlCDkc-131" target="n8Rbeeoi7pqlCmdlCDkc-230" edge="1">
          <mxGeometry relative="1" as="geometry" />
        </mxCell>
        <mxCell id="n8Rbeeoi7pqlCmdlCDkc-131" value="&lt;font style=&quot;color: rgb(0, 0, 0);&quot;&gt;&lt;b&gt;VPC - PRIMARY REGION (EU-WEST-1)&lt;/b&gt;&lt;/font&gt;" style="points=[[0,0],[0.25,0],[0.5,0],[0.75,0],[1,0],[1,0.25],[1,0.5],[1,0.75],[1,1],[0.75,1],[0.5,1],[0.25,1],[0,1],[0,0.75],[0,0.5],[0,0.25]];outlineConnect=0;gradientColor=none;html=1;whiteSpace=wrap;fontSize=12;fontStyle=0;container=1;pointerEvents=0;collapsible=0;recursiveResize=0;shape=mxgraph.aws4.group;grIcon=mxgraph.aws4.group_vpc2;strokeColor=#8C4FFF;fillColor=none;verticalAlign=top;align=left;spacingLeft=30;fontColor=#AAB7B8;dashed=0;movable=1;resizable=1;rotatable=1;deletable=1;editable=1;locked=0;connectable=1;" parent="1" vertex="1">
          <mxGeometry x="1338" y="766" width="1950" height="452" as="geometry" />
        </mxCell>
        <mxCell id="n8Rbeeoi7pqlCmdlCDkc-133" value="Public subnet" style="points=[[0,0],[0.25,0],[0.5,0],[0.75,0],[1,0],[1,0.25],[1,0.5],[1,0.75],[1,1],[0.75,1],[0.5,1],[0.25,1],[0,1],[0,0.75],[0,0.5],[0,0.25]];outlineConnect=0;gradientColor=none;html=1;whiteSpace=wrap;fontSize=12;fontStyle=0;container=1;pointerEvents=0;collapsible=0;recursiveResize=0;shape=mxgraph.aws4.group;grIcon=mxgraph.aws4.group_security_group;grStroke=0;strokeColor=#7AA116;fillColor=#F2F6E8;verticalAlign=top;align=left;spacingLeft=30;fontColor=#248814;dashed=0;movable=1;resizable=1;rotatable=1;deletable=1;editable=1;locked=0;connectable=1;" parent="n8Rbeeoi7pqlCmdlCDkc-131" vertex="1">
          <mxGeometry x="31" y="59.5" width="472" height="347.5" as="geometry" />
        </mxCell>
        <mxCell id="n8Rbeeoi7pqlCmdlCDkc-270" value="Route Table" style="sketch=0;outlineConnect=0;fontColor=#232F3E;gradientColor=none;fillColor=#8C4FFF;strokeColor=none;dashed=0;verticalLabelPosition=bottom;verticalAlign=top;align=center;html=1;fontSize=12;fontStyle=0;aspect=fixed;pointerEvents=1;shape=mxgraph.aws4.route_table;" parent="n8Rbeeoi7pqlCmdlCDkc-133" vertex="1">
          <mxGeometry x="349" y="210.75" width="43.62" height="42.5" as="geometry" />
        </mxCell>
        <mxCell id="n8Rbeeoi7pqlCmdlCDkc-140" value="&lt;font style=&quot;font-size: 10px;&quot;&gt;Application Load Balancer&amp;nbsp;&lt;/font&gt;" style="text;strokeColor=none;align=center;fillColor=none;html=1;verticalAlign=middle;whiteSpace=wrap;rounded=0;" parent="n8Rbeeoi7pqlCmdlCDkc-133" vertex="1">
          <mxGeometry x="313" y="131.13" width="132.5" height="34.75" as="geometry" />
        </mxCell>
        <mxCell id="n8Rbeeoi7pqlCmdlCDkc-136" value="Allow HTTP/HTTPS from Internet" style="text;strokeColor=none;align=center;fillColor=none;html=1;verticalAlign=middle;whiteSpace=wrap;rounded=0;" parent="n8Rbeeoi7pqlCmdlCDkc-133" vertex="1">
          <mxGeometry x="175" y="54.68000000000001" width="98" height="30" as="geometry" />
        </mxCell>
        <mxCell id="n8Rbeeoi7pqlCmdlCDkc-273" value="" style="endArrow=classic;html=1;rounded=0;edgeStyle=orthogonalEdgeStyle;elbow=vertical;" parent="n8Rbeeoi7pqlCmdlCDkc-133" source="n8Rbeeoi7pqlCmdlCDkc-270" edge="1">
          <mxGeometry relative="1" as="geometry">
            <mxPoint x="359" y="208.90999999999997" as="sourcePoint" />
            <mxPoint x="373.0714285714289" y="97.68000000000006" as="targetPoint" />
            <Array as="points">
              <mxPoint x="372" y="109.5" />
            </Array>
          </mxGeometry>
        </mxCell>
        <mxCell id="n8Rbeeoi7pqlCmdlCDkc-274" value="&lt;font style=&quot;color: rgb(153, 0, 153);&quot;&gt;Route Public Traffic&lt;/font&gt;" style="edgeLabel;resizable=0;html=1;;align=center;verticalAlign=middle;" parent="n8Rbeeoi7pqlCmdlCDkc-273" connectable="0" vertex="1">
          <mxGeometry relative="1" as="geometry">
            <mxPoint x="1" y="32" as="offset" />
          </mxGeometry>
        </mxCell>
        <mxCell id="n8Rbeeoi7pqlCmdlCDkc-143" style="edgeStyle=orthogonalEdgeStyle;rounded=0;orthogonalLoop=1;jettySize=auto;html=1;exitX=1;exitY=0.5;exitDx=0;exitDy=0;" parent="n8Rbeeoi7pqlCmdlCDkc-133" source="n8Rbeeoi7pqlCmdlCDkc-136" edge="1">
          <mxGeometry relative="1" as="geometry">
            <mxPoint x="345.05999999999995" y="69.68000000000006" as="targetPoint" />
          </mxGeometry>
        </mxCell>
        <mxCell id="n8Rbeeoi7pqlCmdlCDkc-135" value="SG: Allow Internet -&amp;gt; NLB (HTTP/HTTPS)" style="text;strokeColor=none;align=center;fillColor=none;html=1;verticalAlign=middle;whiteSpace=wrap;rounded=0;" parent="n8Rbeeoi7pqlCmdlCDkc-131" vertex="1">
          <mxGeometry x="34" y="144.18" width="87" height="57.5" as="geometry" />
        </mxCell>
        <mxCell id="n8Rbeeoi7pqlCmdlCDkc-134" value="" style="sketch=0;aspect=fixed;pointerEvents=1;shadow=0;dashed=0;html=1;strokeColor=none;labelPosition=center;verticalLabelPosition=bottom;verticalAlign=top;align=center;fillColor=#009900;shape=mxgraph.mscae.enterprise.lock" parent="n8Rbeeoi7pqlCmdlCDkc-131" vertex="1">
          <mxGeometry x="58" y="110.59" width="29" height="37.18" as="geometry" />
        </mxCell>
        <mxCell id="n8Rbeeoi7pqlCmdlCDkc-144" style="edgeStyle=orthogonalEdgeStyle;rounded=0;orthogonalLoop=1;jettySize=auto;html=1;exitX=1;exitY=0.5;exitDx=0;exitDy=0;exitPerimeter=0;entryX=0;entryY=0.5;entryDx=0;entryDy=0;" parent="n8Rbeeoi7pqlCmdlCDkc-131" source="n8Rbeeoi7pqlCmdlCDkc-134" target="n8Rbeeoi7pqlCmdlCDkc-136" edge="1">
          <mxGeometry relative="1" as="geometry" />
        </mxCell>
        <mxCell id="n8Rbeeoi7pqlCmdlCDkc-166" value="Private subnet (App)" style="points=[[0,0],[0.25,0],[0.5,0],[0.75,0],[1,0],[1,0.25],[1,0.5],[1,0.75],[1,1],[0.75,1],[0.5,1],[0.25,1],[0,1],[0,0.75],[0,0.5],[0,0.25]];outlineConnect=0;gradientColor=none;html=1;whiteSpace=wrap;fontSize=12;fontStyle=0;container=1;pointerEvents=0;collapsible=0;recursiveResize=0;shape=mxgraph.aws4.group;grIcon=mxgraph.aws4.group_security_group;grStroke=0;strokeColor=#00A4A6;fillColor=#E6F6F7;verticalAlign=top;align=left;spacingLeft=30;fontColor=#147EBA;dashed=0;" parent="n8Rbeeoi7pqlCmdlCDkc-131" vertex="1">
          <mxGeometry x="671" y="59" width="496" height="347" as="geometry" />
        </mxCell>
        <mxCell id="n8Rbeeoi7pqlCmdlCDkc-167" value="" style="sketch=0;aspect=fixed;pointerEvents=1;shadow=0;dashed=0;html=1;strokeColor=none;labelPosition=center;verticalLabelPosition=bottom;verticalAlign=top;align=center;fillColor=#009900;shape=mxgraph.mscae.enterprise.lock" parent="n8Rbeeoi7pqlCmdlCDkc-166" vertex="1">
          <mxGeometry x="47" y="74.40999999999997" width="29" height="37.18" as="geometry" />
        </mxCell>
        <mxCell id="n8Rbeeoi7pqlCmdlCDkc-168" value="SG: Allow NLB -&amp;gt; App (HTTP)" style="text;strokeColor=none;align=center;fillColor=none;html=1;verticalAlign=middle;whiteSpace=wrap;rounded=0;" parent="n8Rbeeoi7pqlCmdlCDkc-166" vertex="1">
          <mxGeometry x="3" y="111.59" width="124.5" height="46" as="geometry" />
        </mxCell>
        <mxCell id="n8Rbeeoi7pqlCmdlCDkc-182" value="" style="endArrow=classic;html=1;rounded=1;edgeStyle=orthogonalEdgeStyle;curved=0;exitX=1;exitY=0.5;exitDx=0;exitDy=0;exitPerimeter=0;" parent="n8Rbeeoi7pqlCmdlCDkc-166" source="n8Rbeeoi7pqlCmdlCDkc-167" target="n8Rbeeoi7pqlCmdlCDkc-285" edge="1">
          <mxGeometry relative="1" as="geometry">
            <mxPoint x="76" y="97" as="sourcePoint" />
            <mxPoint x="391" y="157.49999999999977" as="targetPoint" />
          </mxGeometry>
        </mxCell>
        <mxCell id="n8Rbeeoi7pqlCmdlCDkc-183" value="&lt;b&gt;Allow HTTP to Pods&lt;/b&gt;" style="edgeLabel;resizable=0;html=1;;align=center;verticalAlign=middle;" parent="n8Rbeeoi7pqlCmdlCDkc-182" connectable="0" vertex="1">
          <mxGeometry relative="1" as="geometry">
            <mxPoint x="8" y="-2" as="offset" />
          </mxGeometry>
        </mxCell>
        <mxCell id="n8Rbeeoi7pqlCmdlCDkc-285" value="ECS Cluster (App)" style="outlineConnect=0;dashed=0;verticalLabelPosition=bottom;verticalAlign=top;align=center;html=1;shape=mxgraph.aws3.ecs;fillColor=#F58534;gradientColor=none;" parent="n8Rbeeoi7pqlCmdlCDkc-166" vertex="1">
          <mxGeometry x="399" y="141" width="50" height="55.68" as="geometry" />
        </mxCell>
        <mxCell id="n8Rbeeoi7pqlCmdlCDkc-172" value="" style="endArrow=classic;html=1;rounded=0;entryX=0;entryY=0.5;entryDx=0;entryDy=0;entryPerimeter=0;" parent="n8Rbeeoi7pqlCmdlCDkc-131" target="n8Rbeeoi7pqlCmdlCDkc-167" edge="1">
          <mxGeometry relative="1" as="geometry">
            <mxPoint x="431" y="152" as="sourcePoint" />
            <mxPoint x="531" y="152" as="targetPoint" />
          </mxGeometry>
        </mxCell>
        <mxCell id="n8Rbeeoi7pqlCmdlCDkc-173" value="Forward Traffic" style="edgeLabel;resizable=0;html=1;;align=center;verticalAlign=middle;" parent="n8Rbeeoi7pqlCmdlCDkc-172" connectable="0" vertex="1">
          <mxGeometry relative="1" as="geometry">
            <mxPoint x="8" y="-2" as="offset" />
          </mxGeometry>
        </mxCell>
        <mxCell id="n8Rbeeoi7pqlCmdlCDkc-200" value="Private subnet (DB)" style="points=[[0,0],[0.25,0],[0.5,0],[0.75,0],[1,0],[1,0.25],[1,0.5],[1,0.75],[1,1],[0.75,1],[0.5,1],[0.25,1],[0,1],[0,0.75],[0,0.5],[0,0.25]];outlineConnect=0;gradientColor=none;html=1;whiteSpace=wrap;fontSize=12;fontStyle=0;container=1;pointerEvents=0;collapsible=0;recursiveResize=0;shape=mxgraph.aws4.group;grIcon=mxgraph.aws4.group_security_group;grStroke=0;strokeColor=#00A4A6;fillColor=#E6F6F7;verticalAlign=top;align=left;spacingLeft=30;fontColor=#147EBA;dashed=0;" parent="n8Rbeeoi7pqlCmdlCDkc-131" vertex="1">
          <mxGeometry x="1336" y="67" width="557" height="340" as="geometry" />
        </mxCell>
        <mxCell id="n8Rbeeoi7pqlCmdlCDkc-209" value="" style="endArrow=classic;html=1;rounded=1;entryX=0;entryY=0.25;entryDx=0;entryDy=0;entryPerimeter=0;edgeStyle=orthogonalEdgeStyle;curved=0;" parent="n8Rbeeoi7pqlCmdlCDkc-200" edge="1">
          <mxGeometry relative="1" as="geometry">
            <mxPoint x="67" y="86.00000000000003" as="sourcePoint" />
            <mxPoint x="425" y="118.41000000000045" as="targetPoint" />
            <Array as="points">
              <mxPoint x="247" y="85.91" />
              <mxPoint x="247" y="118.91" />
            </Array>
          </mxGeometry>
        </mxCell>
        <mxCell id="n8Rbeeoi7pqlCmdlCDkc-210" value="&lt;b&gt;PostgreSQL Access&lt;/b&gt;" style="edgeLabel;resizable=0;html=1;;align=center;verticalAlign=middle;" parent="n8Rbeeoi7pqlCmdlCDkc-209" connectable="0" vertex="1">
          <mxGeometry relative="1" as="geometry" />
        </mxCell>
        <mxCell id="n8Rbeeoi7pqlCmdlCDkc-263" value="&lt;font style=&quot;font-size: 9px;&quot;&gt;EC2 Instance&lt;/font&gt;" style="points=[[0,0],[0.25,0],[0.5,0],[0.75,0],[1,0],[1,0.25],[1,0.5],[1,0.75],[1,1],[0.75,1],[0.5,1],[0.25,1],[0,1],[0,0.75],[0,0.5],[0,0.25]];outlineConnect=0;gradientColor=none;html=1;whiteSpace=wrap;fontSize=12;fontStyle=0;container=1;pointerEvents=0;collapsible=0;recursiveResize=0;shape=mxgraph.aws4.group;grIcon=mxgraph.aws4.group_ec2_instance_contents;strokeColor=#D86613;fillColor=none;verticalAlign=top;align=left;spacingLeft=30;fontColor=#D86613;dashed=0;" parent="n8Rbeeoi7pqlCmdlCDkc-200" vertex="1">
          <mxGeometry x="425" y="108" width="97" height="96.91" as="geometry" />
        </mxCell>
        <mxCell id="n8Rbeeoi7pqlCmdlCDkc-264" value="" style="sketch=0;outlineConnect=0;fontColor=#232F3E;gradientColor=none;fillColor=#C925D1;strokeColor=none;dashed=0;verticalLabelPosition=bottom;verticalAlign=top;align=center;html=1;fontSize=12;fontStyle=0;aspect=fixed;pointerEvents=1;shape=mxgraph.aws4.rds_postgresql_instance;" parent="n8Rbeeoi7pqlCmdlCDkc-263" vertex="1">
          <mxGeometry x="28.5" y="37.49999999999997" width="40" height="40" as="geometry" />
        </mxCell>
        <mxCell id="n8Rbeeoi7pqlCmdlCDkc-220" value="&lt;font&gt;PostgreSQL Primary in EC2&lt;/font&gt;&lt;div&gt;&lt;font&gt;(Sync Replication AZs)&lt;/font&gt;&lt;/div&gt;" style="text;strokeColor=none;align=center;fillColor=none;html=1;verticalAlign=middle;whiteSpace=wrap;rounded=0;" parent="n8Rbeeoi7pqlCmdlCDkc-200" vertex="1">
          <mxGeometry x="434" y="199" width="83.25" height="89" as="geometry" />
        </mxCell>
        <mxCell id="n8Rbeeoi7pqlCmdlCDkc-216" value="" style="endArrow=classic;html=1;rounded=1;entryX=0.5;entryY=1;entryDx=0;entryDy=0;entryPerimeter=0;edgeStyle=orthogonalEdgeStyle;curved=0;" parent="n8Rbeeoi7pqlCmdlCDkc-200" source="n8Rbeeoi7pqlCmdlCDkc-122" edge="1">
          <mxGeometry relative="1" as="geometry">
            <mxPoint x="-2057" y="549" as="sourcePoint" />
            <mxPoint x="425" y="196" as="targetPoint" />
            <Array as="points">
              <mxPoint x="-2092" y="620" />
              <mxPoint x="233" y="620" />
              <mxPoint x="233" y="196" />
            </Array>
          </mxGeometry>
        </mxCell>
        <mxCell id="n8Rbeeoi7pqlCmdlCDkc-217" value="Manage DB Backups" style="edgeLabel;resizable=0;html=1;;align=center;verticalAlign=middle;" parent="n8Rbeeoi7pqlCmdlCDkc-216" connectable="0" vertex="1">
          <mxGeometry relative="1" as="geometry">
            <mxPoint x="-910" y="1" as="offset" />
          </mxGeometry>
        </mxCell>
        <mxCell id="n8Rbeeoi7pqlCmdlCDkc-291" value="" style="endArrow=classic;html=1;rounded=1;edgeStyle=orthogonalEdgeStyle;entryX=0;entryY=0.5;entryDx=0;entryDy=0;curved=0;" parent="n8Rbeeoi7pqlCmdlCDkc-200" target="n8Rbeeoi7pqlCmdlCDkc-263" edge="1">
          <mxGeometry width="50" height="50" relative="1" as="geometry">
            <mxPoint x="-242" y="292" as="sourcePoint" />
            <mxPoint x="210" y="244" as="targetPoint" />
          </mxGeometry>
        </mxCell>
        <mxCell id="n8Rbeeoi7pqlCmdlCDkc-204" value="" style="endArrow=classic;html=1;rounded=0;entryX=0;entryY=0.5;entryDx=0;entryDy=0;entryPerimeter=0;edgeStyle=orthogonalEdgeStyle;" parent="n8Rbeeoi7pqlCmdlCDkc-131" target="n8Rbeeoi7pqlCmdlCDkc-202" edge="1">
          <mxGeometry relative="1" as="geometry">
            <mxPoint x="1130" y="217" as="sourcePoint" />
            <mxPoint x="1230" y="217" as="targetPoint" />
            <Array as="points">
              <mxPoint x="1130" y="218" />
              <mxPoint x="1253" y="218" />
              <mxPoint x="1253" y="155" />
            </Array>
          </mxGeometry>
        </mxCell>
        <mxCell id="n8Rbeeoi7pqlCmdlCDkc-205" value="Allow PostgreSQL Traffic" style="edgeLabel;resizable=0;html=1;;align=center;verticalAlign=middle;" parent="n8Rbeeoi7pqlCmdlCDkc-204" connectable="0" vertex="1">
          <mxGeometry relative="1" as="geometry" />
        </mxCell>
        <mxCell id="n8Rbeeoi7pqlCmdlCDkc-161" value="" style="endArrow=classic;html=1;rounded=1;edgeStyle=orthogonalEdgeStyle;curved=0;" parent="n8Rbeeoi7pqlCmdlCDkc-131" source="n8Rbeeoi7pqlCmdlCDkc-158" edge="1">
          <mxGeometry relative="1" as="geometry">
            <mxPoint x="-249.25" y="-50.59000000000003" as="sourcePoint" />
            <mxPoint x="403.75" y="104.00000000000011" as="targetPoint" />
          </mxGeometry>
        </mxCell>
        <mxCell id="n8Rbeeoi7pqlCmdlCDkc-162" value="Route Traffic" style="edgeLabel;resizable=0;html=1;;align=center;verticalAlign=middle;" parent="n8Rbeeoi7pqlCmdlCDkc-161" connectable="0" vertex="1">
          <mxGeometry relative="1" as="geometry" />
        </mxCell>
        <mxCell id="n8Rbeeoi7pqlCmdlCDkc-128" style="edgeStyle=orthogonalEdgeStyle;rounded=1;orthogonalLoop=1;jettySize=auto;html=1;entryX=0;entryY=0.5;entryDx=0;entryDy=0;entryPerimeter=0;curved=0;" parent="1" source="n8Rbeeoi7pqlCmdlCDkc-122" target="n8Rbeeoi7pqlCmdlCDkc-120" edge="1">
          <mxGeometry relative="1" as="geometry">
            <Array as="points">
              <mxPoint x="747" y="1316" />
              <mxPoint x="747" y="1203" />
            </Array>
          </mxGeometry>
        </mxCell>
        <mxCell id="n8Rbeeoi7pqlCmdlCDkc-158" value="" style="sketch=0;points=[[0,0,0],[0.25,0,0],[0.5,0,0],[0.75,0,0],[1,0,0],[0,1,0],[0.25,1,0],[0.5,1,0],[0.75,1,0],[1,1,0],[0,0.25,0],[0,0.5,0],[0,0.75,0],[1,0.25,0],[1,0.5,0],[1,0.75,0]];outlineConnect=0;fontColor=#232F3E;fillColor=#8C4FFF;strokeColor=#ffffff;dashed=0;verticalLabelPosition=bottom;verticalAlign=top;align=center;html=1;fontSize=12;fontStyle=0;aspect=fixed;shape=mxgraph.aws4.resourceIcon;resIcon=mxgraph.aws4.route_53;" parent="1" vertex="1">
          <mxGeometry x="1006.5" y="702" width="73" height="73" as="geometry" />
        </mxCell>
        <mxCell id="n8Rbeeoi7pqlCmdlCDkc-163" value="Route 53 DNS (Failover Routing Policy)" style="text;strokeColor=none;align=center;fillColor=none;html=1;verticalAlign=middle;whiteSpace=wrap;rounded=0;" parent="1" vertex="1">
          <mxGeometry x="977.62" y="789" width="134.25" height="29" as="geometry" />
        </mxCell>
        <mxCell id="n8Rbeeoi7pqlCmdlCDkc-196" value="" style="endArrow=classic;html=1;rounded=1;entryX=0;entryY=0.75;entryDx=0;entryDy=0;entryPerimeter=0;edgeStyle=orthogonalEdgeStyle;curved=0;" parent="1" source="n8Rbeeoi7pqlCmdlCDkc-122" edge="1">
          <mxGeometry relative="1" as="geometry">
            <mxPoint x="1435" y="1429" as="sourcePoint" />
            <mxPoint x="2400" y="998.25" as="targetPoint" />
            <Array as="points">
              <mxPoint x="586" y="1101" />
              <mxPoint x="2177" y="1101" />
              <mxPoint x="2177" y="998" />
            </Array>
          </mxGeometry>
        </mxCell>
        <mxCell id="n8Rbeeoi7pqlCmdlCDkc-198" value="Deploy Apps" style="edgeLabel;html=1;align=center;verticalAlign=middle;resizable=0;points=[];" parent="n8Rbeeoi7pqlCmdlCDkc-196" vertex="1" connectable="0">
          <mxGeometry x="-0.545" y="1" relative="1" as="geometry">
            <mxPoint x="221" as="offset" />
          </mxGeometry>
        </mxCell>
        <mxCell id="n8Rbeeoi7pqlCmdlCDkc-202" value="&lt;span style=&quot;text-wrap-mode: wrap;&quot;&gt;SG: Allow App -&amp;gt; DB&lt;br&gt;(PosgreSQL Port 5432)&lt;/span&gt;" style="sketch=0;aspect=fixed;pointerEvents=1;shadow=0;dashed=0;html=1;strokeColor=none;labelPosition=center;verticalLabelPosition=bottom;verticalAlign=top;align=center;fillColor=#009900;shape=mxgraph.mscae.enterprise.lock" parent="1" vertex="1">
          <mxGeometry x="2713" y="902" width="29" height="37.18" as="geometry" />
        </mxCell>
        <mxCell id="n8Rbeeoi7pqlCmdlCDkc-230" value="&lt;b style=&quot;color: rgb(0, 0, 0);&quot;&gt;VPC - FAILOVER REGION (EU-CENTRAL-1)&lt;/b&gt;" style="points=[[0,0],[0.25,0],[0.5,0],[0.75,0],[1,0],[1,0.25],[1,0.5],[1,0.75],[1,1],[0.75,1],[0.5,1],[0.25,1],[0,1],[0,0.75],[0,0.5],[0,0.25]];outlineConnect=0;gradientColor=none;html=1;whiteSpace=wrap;fontSize=12;fontStyle=0;container=1;pointerEvents=0;collapsible=0;recursiveResize=0;shape=mxgraph.aws4.group;grIcon=mxgraph.aws4.group_vpc2;strokeColor=#8C4FFF;fillColor=none;verticalAlign=top;align=left;spacingLeft=30;fontColor=#AAB7B8;dashed=0;" parent="1" vertex="1">
          <mxGeometry x="3582" y="766" width="546" height="456" as="geometry" />
        </mxCell>
        <mxCell id="n8Rbeeoi7pqlCmdlCDkc-239" value="Private subnet (DB Replica)" style="points=[[0,0],[0.25,0],[0.5,0],[0.75,0],[1,0],[1,0.25],[1,0.5],[1,0.75],[1,1],[0.75,1],[0.5,1],[0.25,1],[0,1],[0,0.75],[0,0.5],[0,0.25]];outlineConnect=0;gradientColor=none;html=1;whiteSpace=wrap;fontSize=12;fontStyle=0;container=1;pointerEvents=0;collapsible=0;recursiveResize=0;shape=mxgraph.aws4.group;grIcon=mxgraph.aws4.group_security_group;grStroke=0;strokeColor=#00A4A6;fillColor=#E6F6F7;verticalAlign=top;align=left;spacingLeft=30;fontColor=#147EBA;dashed=0;" parent="n8Rbeeoi7pqlCmdlCDkc-230" vertex="1">
          <mxGeometry x="129" y="59.5" width="306" height="366.5" as="geometry" />
        </mxCell>
        <mxCell id="n8Rbeeoi7pqlCmdlCDkc-243" value="&lt;span style=&quot;text-wrap-mode: wrap;&quot;&gt;SG: Allow Replication - Inbound Only&lt;br&gt;&lt;/span&gt;" style="sketch=0;aspect=fixed;pointerEvents=1;shadow=0;dashed=0;html=1;strokeColor=none;labelPosition=center;verticalLabelPosition=bottom;verticalAlign=top;align=center;fillColor=#009900;shape=mxgraph.mscae.enterprise.lock" parent="n8Rbeeoi7pqlCmdlCDkc-239" vertex="1">
          <mxGeometry x="158.24" y="57.5" width="36.53" height="46.83" as="geometry" />
        </mxCell>
        <mxCell id="n8Rbeeoi7pqlCmdlCDkc-265" value="&lt;font style=&quot;font-size: 9px;&quot;&gt;EC2 Instance&lt;/font&gt;" style="points=[[0,0],[0.25,0],[0.5,0],[0.75,0],[1,0],[1,0.25],[1,0.5],[1,0.75],[1,1],[0.75,1],[0.5,1],[0.25,1],[0,1],[0,0.75],[0,0.5],[0,0.25]];outlineConnect=0;gradientColor=none;html=1;whiteSpace=wrap;fontSize=12;fontStyle=0;container=1;pointerEvents=0;collapsible=0;recursiveResize=0;shape=mxgraph.aws4.group;grIcon=mxgraph.aws4.group_ec2_instance_contents;strokeColor=#D86613;fillColor=none;verticalAlign=top;align=left;spacingLeft=30;fontColor=#D86613;dashed=0;" parent="n8Rbeeoi7pqlCmdlCDkc-239" vertex="1">
          <mxGeometry x="128" y="182.5" width="97" height="96" as="geometry" />
        </mxCell>
        <mxCell id="n8Rbeeoi7pqlCmdlCDkc-266" value="" style="sketch=0;outlineConnect=0;fontColor=#232F3E;gradientColor=none;fillColor=#C925D1;strokeColor=none;dashed=0;verticalLabelPosition=bottom;verticalAlign=top;align=center;html=1;fontSize=12;fontStyle=0;aspect=fixed;pointerEvents=1;shape=mxgraph.aws4.rds_postgresql_instance;" parent="n8Rbeeoi7pqlCmdlCDkc-265" vertex="1">
          <mxGeometry x="28.5" y="41.99999999999997" width="40" height="40" as="geometry" />
        </mxCell>
        <mxCell id="n8Rbeeoi7pqlCmdlCDkc-231" value="VPC Peering" style="outlineConnect=0;dashed=0;verticalLabelPosition=bottom;verticalAlign=top;align=center;html=1;shape=mxgraph.aws3.vpc_peering;fillColor=#F58534;gradientColor=none;" parent="1" vertex="1">
          <mxGeometry x="3384" y="940" width="69" height="68" as="geometry" />
        </mxCell>
        <mxCell id="n8Rbeeoi7pqlCmdlCDkc-242" value="&lt;font&gt;PostgreSQL Replica in EC2&lt;/font&gt;&lt;div&gt;&lt;font&gt;(Cross Region Replication AZs)&lt;/font&gt;&lt;/div&gt;" style="text;strokeColor=none;align=center;fillColor=none;html=1;verticalAlign=middle;whiteSpace=wrap;rounded=0;" parent="1" vertex="1">
          <mxGeometry x="3848" y="1103" width="83" height="79" as="geometry" />
        </mxCell>
        <mxCell id="n8Rbeeoi7pqlCmdlCDkc-244" value="" style="endArrow=classic;html=1;rounded=0;exitX=0.8;exitY=0.11;exitDx=0;exitDy=0;exitPerimeter=0;entryX=0;entryY=0.5;entryDx=0;entryDy=0;entryPerimeter=0;edgeStyle=orthogonalEdgeStyle;" parent="1" source="n8Rbeeoi7pqlCmdlCDkc-202" target="n8Rbeeoi7pqlCmdlCDkc-243" edge="1">
          <mxGeometry relative="1" as="geometry">
            <mxPoint x="2751" y="888" as="sourcePoint" />
            <mxPoint x="2851" y="888" as="targetPoint" />
            <Array as="points">
              <mxPoint x="3843" y="906" />
            </Array>
          </mxGeometry>
        </mxCell>
        <mxCell id="n8Rbeeoi7pqlCmdlCDkc-246" value="Replication Traffic Allowed" style="edgeLabel;html=1;align=center;verticalAlign=middle;resizable=0;points=[];" parent="n8Rbeeoi7pqlCmdlCDkc-244" vertex="1" connectable="0">
          <mxGeometry x="0.2296" y="3" relative="1" as="geometry">
            <mxPoint x="-14" y="-1" as="offset" />
          </mxGeometry>
        </mxCell>
        <mxCell id="n8Rbeeoi7pqlCmdlCDkc-247" value="" style="endArrow=classic;html=1;rounded=1;entryX=0;entryY=0.5;entryDx=0;entryDy=0;entryPerimeter=0;edgeStyle=orthogonalEdgeStyle;curved=0;" parent="1" edge="1">
          <mxGeometry relative="1" as="geometry">
            <mxPoint x="3126" y="939" as="sourcePoint" />
            <mxPoint x="3838" y="1044" as="targetPoint" />
            <Array as="points">
              <mxPoint x="3126" y="924" />
              <mxPoint x="3813" y="924" />
              <mxPoint x="3813" y="1044" />
            </Array>
          </mxGeometry>
        </mxCell>
        <mxCell id="n8Rbeeoi7pqlCmdlCDkc-250" value="Async Replication" style="edgeLabel;html=1;align=center;verticalAlign=middle;resizable=0;points=[];" parent="n8Rbeeoi7pqlCmdlCDkc-247" vertex="1" connectable="0">
          <mxGeometry x="-0.2893" relative="1" as="geometry">
            <mxPoint x="13" as="offset" />
          </mxGeometry>
        </mxCell>
        <mxCell id="n8Rbeeoi7pqlCmdlCDkc-212" value="" style="endArrow=classic;html=1;rounded=1;entryX=1;entryY=0.5;entryDx=0;entryDy=0;entryPerimeter=0;edgeStyle=orthogonalEdgeStyle;curved=0;" parent="1" edge="1">
          <mxGeometry relative="1" as="geometry">
            <mxPoint x="3198" y="955.0000000000002" as="sourcePoint" />
            <mxPoint x="898" y="1203.5" as="targetPoint" />
            <Array as="points">
              <mxPoint x="3261" y="955" />
              <mxPoint x="3261" y="1393" />
              <mxPoint x="969" y="1393" />
              <mxPoint x="969" y="1204" />
            </Array>
          </mxGeometry>
        </mxCell>
        <mxCell id="n8Rbeeoi7pqlCmdlCDkc-213" value="Backup Writes" style="edgeLabel;resizable=0;html=1;;align=center;verticalAlign=middle;" parent="n8Rbeeoi7pqlCmdlCDkc-212" connectable="0" vertex="1">
          <mxGeometry relative="1" as="geometry">
            <mxPoint x="-1142" y="-4" as="offset" />
          </mxGeometry>
        </mxCell>
        <mxCell id="n8Rbeeoi7pqlCmdlCDkc-271" style="edgeStyle=orthogonalEdgeStyle;rounded=0;orthogonalLoop=1;jettySize=auto;html=1;exitX=1;exitY=0.5;exitDx=0;exitDy=0;exitPerimeter=0;" parent="1" source="n8Rbeeoi7pqlCmdlCDkc-269" target="n8Rbeeoi7pqlCmdlCDkc-270" edge="1">
          <mxGeometry relative="1" as="geometry" />
        </mxCell>
        <mxCell id="n8Rbeeoi7pqlCmdlCDkc-272" value="Default Route" style="edgeLabel;html=1;align=center;verticalAlign=middle;resizable=0;points=[];" parent="n8Rbeeoi7pqlCmdlCDkc-271" vertex="1" connectable="0">
          <mxGeometry x="-0.0178" y="3" relative="1" as="geometry">
            <mxPoint x="-4" y="3" as="offset" />
          </mxGeometry>
        </mxCell>
        <mxCell id="n8Rbeeoi7pqlCmdlCDkc-269" value="Internet Gateway" style="outlineConnect=0;dashed=0;verticalLabelPosition=bottom;verticalAlign=top;align=center;html=1;shape=mxgraph.aws3.internet_gateway;fillColor=#F58534;gradientColor=none;" parent="1" vertex="1">
          <mxGeometry x="1412" y="1029.75" width="45" height="49" as="geometry" />
        </mxCell>
        <mxCell id="n8Rbeeoi7pqlCmdlCDkc-277" value="" style="endArrow=classic;html=1;rounded=1;edgeStyle=orthogonalEdgeStyle;curved=0;entryX=0;entryY=0.5;entryDx=0;entryDy=0;entryPerimeter=0;" parent="1" target="n8Rbeeoi7pqlCmdlCDkc-269" edge="1">
          <mxGeometry relative="1" as="geometry">
            <mxPoint x="693.7142857142858" y="505" as="sourcePoint" />
            <mxPoint x="1390" y="1064" as="targetPoint" />
            <Array as="points">
              <mxPoint x="694" y="1050" />
              <mxPoint x="1278" y="1050" />
              <mxPoint x="1278" y="1054" />
            </Array>
          </mxGeometry>
        </mxCell>
        <mxCell id="n8Rbeeoi7pqlCmdlCDkc-279" value="Via Internet" style="edgeLabel;html=1;align=center;verticalAlign=middle;resizable=0;points=[];" parent="n8Rbeeoi7pqlCmdlCDkc-277" vertex="1" connectable="0">
          <mxGeometry x="0.4205" relative="1" as="geometry">
            <mxPoint x="45" as="offset" />
          </mxGeometry>
        </mxCell>
        <mxCell id="n8Rbeeoi7pqlCmdlCDkc-286" value="" style="sketch=0;outlineConnect=0;fontColor=#232F3E;gradientColor=none;fillColor=#8C4FFF;strokeColor=none;dashed=0;verticalLabelPosition=bottom;verticalAlign=top;align=center;html=1;fontSize=12;fontStyle=0;aspect=fixed;pointerEvents=1;shape=mxgraph.aws4.application_load_balancer;" parent="1" vertex="1">
          <mxGeometry x="1712" y="866" width="63" height="63" as="geometry" />
        </mxCell>
        <mxCell id="n8Rbeeoi7pqlCmdlCDkc-288" value="NAT Gateway" style="sketch=0;outlineConnect=0;fontColor=#232F3E;gradientColor=none;fillColor=#8C4FFF;strokeColor=none;dashed=0;verticalLabelPosition=bottom;verticalAlign=top;align=center;html=1;fontSize=12;fontStyle=0;aspect=fixed;pointerEvents=1;shape=mxgraph.aws4.nat_gateway;" parent="1" vertex="1">
          <mxGeometry x="1562" y="1103" width="46" height="46" as="geometry" />
        </mxCell>
        <mxCell id="n8Rbeeoi7pqlCmdlCDkc-290" value="" style="endArrow=classic;html=1;rounded=1;edgeStyle=orthogonalEdgeStyle;curved=0;" parent="1" source="n8Rbeeoi7pqlCmdlCDkc-288" target="n8Rbeeoi7pqlCmdlCDkc-285" edge="1">
          <mxGeometry width="50" height="50" relative="1" as="geometry">
            <mxPoint x="1622" y="1153" as="sourcePoint" />
            <mxPoint x="1672" y="1103" as="targetPoint" />
          </mxGeometry>
        </mxCell>
        <mxCell id="0LZCRunO3RnAUJ28Ptvb-3" value="&lt;b&gt;AWS CLOUD&lt;/b&gt;" style="outlineConnect=0;dashed=0;verticalLabelPosition=bottom;verticalAlign=top;align=center;html=1;shape=mxgraph.aws3.cloud_2;fillColor=#F58534;gradientColor=none;" parent="1" vertex="1">
          <mxGeometry x="545" y="377" width="66" height="66" as="geometry" />
        </mxCell>
        <mxCell id="LPilMZm9-nimBSs5YNVM-1" style="edgeStyle=orthogonalEdgeStyle;rounded=1;orthogonalLoop=1;jettySize=auto;html=1;exitX=0;exitY=0.75;exitDx=0;exitDy=0;entryX=0.5;entryY=1;entryDx=0;entryDy=0;entryPerimeter=0;curved=0;" edge="1" parent="1" source="n8Rbeeoi7pqlCmdlCDkc-265" target="n8Rbeeoi7pqlCmdlCDkc-120">
          <mxGeometry relative="1" as="geometry">
            <Array as="points">
              <mxPoint x="3750" y="1080" />
              <mxPoint x="3750" y="1251" />
              <mxPoint x="872" y="1251" />
            </Array>
          </mxGeometry>
        </mxCell>
        <mxCell id="LPilMZm9-nimBSs5YNVM-3" value="&lt;font style=&quot;font-size: 13px;&quot;&gt;Backup Writes DR&lt;/font&gt;&lt;div&gt;&lt;br&gt;&lt;/div&gt;" style="edgeLabel;html=1;align=center;verticalAlign=middle;resizable=0;points=[];" vertex="1" connectable="0" parent="LPilMZm9-nimBSs5YNVM-1">
          <mxGeometry x="-0.5619" y="3" relative="1" as="geometry">
            <mxPoint x="101" y="1" as="offset" />
          </mxGeometry>
        </mxCell>
      </root>
    </mxGraphModel>
  </diagram>
</mxfile>
